<?xml version="1.0" encoding="UTF-8" standalone="no"?>
<!DOCTYPE svg PUBLIC "-//W3C//DTD SVG 1.1//EN" "http://www.w3.org/Graphics/SVG/1.1/DTD/svg11.dtd">
<svg width="100%" height="100%" viewBox="0 0 512 512" version="1.1" xmlns="http://www.w3.org/2000/svg" xmlns:xlink="http://www.w3.org/1999/xlink" xml:space="preserve" xmlns:serif="http://www.serif.com/" style="fill-rule:evenodd;clip-rule:evenodd;stroke-linejoin:round;stroke-miterlimit:2;">
    <path d="M512,256C512,397.385 397.385,512 256,512C138.543,512 39.56,432.891 9.425,325.047C9.216,324.326 9.028,323.615 8.829,322.895C7.795,319.071 6.854,315.205 5.987,311.318C5.987,311.276 5.977,311.245 5.966,311.203C2.058,293.418 0,274.954 0,256C0,221.717 6.74,189.022 18.975,159.138L18.975,159.128C20.166,156.202 21.41,153.297 22.716,150.424C25.067,145.22 27.596,140.111 30.292,135.106C31.044,133.695 31.818,132.295 32.601,130.906C76.434,52.778 160.057,0 256,0C376.592,0 477.706,83.372 504.832,195.626C504.999,196.284 505.156,196.943 505.313,197.601C506.462,202.554 507.476,207.569 508.333,212.637C508.845,215.667 509.315,218.718 509.723,221.78C511.227,232.97 512,244.391 512,256Z" style="fill:rgb(206,214,214);fill-rule:nonzero;"/>
    <g transform="matrix(0.901504,0,0,0.901504,34.6285,34.2083)">
        <g transform="matrix(1,0,0,1,-1,0)">
            <path d="M163.182,269.772C161.186,286.605 158.95,303.407 157.299,320.272C156.839,324.88 155.115,325.611 151.03,325.423C111.47,323.699 71.879,324.43 32.298,324.347C24.66,324.337 17.042,324.755 9.425,325.047C9.216,324.326 9.028,323.615 8.829,322.895C7.795,319.071 6.854,315.205 5.987,311.318C6.907,311.099 7.816,310.9 8.735,310.702C16.216,309.124 18.672,306.021 18.871,298.31C19.237,283.305 19.644,268.311 19.686,253.306C19.738,229.524 19.519,205.742 19.373,181.96C19.321,174.531 19.101,167.112 18.986,159.683C18.986,159.495 18.976,159.317 18.976,159.14L18.976,159.13C18.819,152.495 17.639,148.88 14.107,146.623C12.111,145.348 9.374,144.502 5.654,143.812C3.784,143.467 1.892,143.185 0.001,142.872L0.001,129.894C7.315,130.218 14.63,130.563 21.954,130.751C23.898,130.793 25.841,130.835 27.785,130.855C29.394,130.876 30.993,130.897 32.602,130.907C64.419,131.294 96.268,131.879 128.074,130.332C135.806,129.945 143.664,129.977 151.229,127.751L153.016,127.751C154.092,128.974 153.988,130.436 153.894,131.92C152.891,148.095 151.815,164.27 150.979,180.456C150.822,183.361 149.976,184.468 147.102,184.082C145.775,183.894 144.406,183.915 143.079,184.072C140.738,184.365 139.808,183.445 139.202,181.104C137.436,174.208 136.015,167.196 133.497,160.509C128.555,147.416 123.727,143.979 109.966,143.979C92.255,143.979 74.544,143.969 56.822,143.989C50.062,143.989 49.518,144.564 49.518,151.408C49.518,172.839 49.591,194.28 49.445,215.711C49.424,219.117 50.197,220.329 53.834,220.256C66.174,220.005 78.535,220.34 90.834,218.96C98.504,218.093 101.011,216.034 102.903,208.71C104.126,203.956 105.442,199.222 106.32,194.405C106.874,191.343 108.023,190.257 111.252,190.351C119.298,190.539 119.36,190.372 118.744,198.407C117.281,217.863 117.521,237.34 118.242,256.806C118.378,260.505 117.396,261.633 113.613,261.466C106.435,261.173 106.435,261.403 104.867,254.382C104.156,251.185 103.488,247.987 102.631,244.832C100.876,238.375 96.696,234.519 89.915,234.279C77.439,233.809 64.942,233.673 52.455,233.307C49.989,233.223 49.477,234.268 49.487,236.473C49.55,255.825 49.351,275.176 49.591,294.517C49.716,304.903 55.254,310.64 65.703,310.849C82.808,311.183 99.934,311.225 117.039,310.786C129.108,310.452 137.164,303.514 142.106,292.856C145.544,285.437 148.699,277.904 152.001,270.433C153.192,267.727 160.695,265.647 162.962,267.371C163.934,268.1 163.286,268.957 163.182,269.772Z" style="fill:rgb(17,17,17);fill-rule:nonzero;"/>
        </g>
        <g>
            <g transform="matrix(1,0,0,1,-1,0)">
                <path d="M509.722,221.78C495.219,257.515 479.995,292.979 464.676,328.37C458.219,343.291 449.838,357.136 437.843,368.431C429.547,376.236 419.908,380.959 408.607,383.425C406.608,383.861 403.634,384.097 400.502,384.215C392.416,384.52 384.317,383.405 376.634,380.86C374.849,380.269 373.096,379.582 371.439,378.619C369.287,377.376 368.576,376.174 369.297,373.698C372.244,363.698 373.936,353.417 375.263,343.103C375.675,339.915 376.864,338.899 379.915,339.038C380.996,339.087 382.092,339.018 383.157,338.828C386.195,338.287 387.698,339.134 388.157,342.549C388.899,348.129 390.184,353.646 391.365,359.173C392.964,366.696 397.06,369.538 404.802,368.755C416.641,367.543 425.554,361.211 433.15,352.611C438.103,347.021 442.042,340.731 445.563,334.148C446.608,332.204 446.514,330.616 445.772,328.715C431.217,291.36 416.389,254.12 400.35,217.371C397.612,211.112 393.819,206.65 386.829,205.104C381.73,203.976 384.227,199.535 384.06,196.578C383.872,193.172 386.954,194.739 388.428,194.843C407.759,196.254 427.068,195.512 446.388,194.759C448.008,194.696 450.609,193.871 450.035,196.87C449.533,199.503 452.553,203.411 447.611,204.644C445.448,205.177 443.254,205.616 441.091,206.149C432.721,208.197 430.255,212.356 433.066,220.527C441.185,244.121 450.014,267.443 459.105,290.681C460.004,293.001 460.965,295.299 462.282,298.539C463.975,294.871 465.375,292.061 466.576,289.177C475.938,266.701 485.301,244.225 494.59,221.708C497.631,214.352 495.75,210.11 488.415,207.278C486.2,206.421 483.943,205.606 481.634,205.084C479.335,204.572 478.604,203.412 478.572,201.072C478.478,194.531 478.384,194.332 484.915,194.813C491.561,195.304 498.196,195.586 504.831,195.628C504.998,196.286 505.155,196.945 505.312,197.603C506.461,202.556 514.414,201.788 515.271,206.856C515.783,209.884 509.315,218.718 509.722,221.78Z" style="fill:rgb(17,17,17);fill-rule:nonzero;"/>
            </g>
            <g transform="matrix(1,0,0,1,-1,0)">
                <path d="M329.654,191.059C343.503,191.272 354.529,192.591 365.361,195.547C368.36,196.365 369.106,197.523 368.664,200.822C367.538,209.209 366.918,217.683 366.539,226.143C366.392,229.422 365.443,230.178 362.234,230.573C357.325,231.178 354.955,229.682 353.946,224.838C353.132,220.935 351.322,217.25 350.317,213.373C348.933,208.034 345.468,205.122 340.384,203.593C332.71,201.283 325.088,201.343 317.633,204.197C306.383,208.504 303.114,221.085 310.668,230.519C314.684,235.535 320.155,238.566 325.805,241.282C333.97,245.207 342.322,248.769 350.338,252.973C361.017,258.574 369.838,266.021 373.054,278.45C377.64,296.173 369.989,313.346 353.536,321.449C339.356,328.432 324.315,328.813 309.046,326.608C301.099,325.46 293.296,323.622 285.635,321.169C283.637,320.53 282.88,319.86 283.142,317.469C284.295,306.94 284.127,296.363 283.121,285.834C282.839,282.885 283.749,282.562 286.355,282.201C291.667,281.465 294.591,283.238 295.87,288.528C296.701,291.966 298.482,295.161 299.583,298.548C304.884,314.859 318.123,317.87 329.994,316.854C338.681,316.11 345.879,312.672 348.673,303.527C351.413,294.561 348.469,286.101 340.578,279.799C333.513,274.157 325.085,271.063 316.987,267.378C311.434,264.851 305.912,262.289 300.783,258.966C287.783,250.541 282.043,238.637 283.972,223.234C285.951,207.434 295.797,198.506 310.284,193.93C317.426,191.67 324.812,190.852 329.654,191.059Z" style="fill:rgb(17,17,17);fill-rule:nonzero;"/>
            </g>
        </g>
        <g transform="matrix(1,0,0,1,-1,0)">
            <path d="M192.322,256.169C192.322,242.621 192.21,229.07 192.403,215.525C192.449,212.293 191.459,211.532 188.407,211.669C182.91,211.916 177.389,211.624 171.885,211.789C169.306,211.866 168.354,211.316 168.212,208.421C167.993,203.961 168.868,201.832 173.961,200.891C188.367,198.232 197.257,188.624 202.93,175.632C205.198,170.437 206.895,165.037 207.793,159.457C208.296,156.335 209.567,155.399 212.731,155.494C220.019,155.714 220.025,155.526 220.025,162.75C220.025,172.726 220.149,182.703 219.951,192.675C219.89,195.725 220.554,196.795 223.799,196.61C234.781,195.982 245.782,195.696 256.77,195.167C261.979,194.916 261.959,194.798 261.314,199.925C260.943,202.877 260.228,205.855 260.378,208.786C260.61,213.357 258.41,213.667 254.69,213.302C244.628,212.317 234.523,211.768 224.455,210.843C221.165,210.541 219.895,211.114 219.929,214.895C220.128,237.523 220.019,260.155 220.035,282.786C220.038,287.555 220.38,292.299 221.571,296.941C224.646,308.929 232.793,313.737 244.758,310.542C250.19,309.092 254.988,306.446 258.622,302.072C259.953,300.469 260.61,300.607 261.928,302.128C266.358,307.244 266.474,308.465 262.378,313.842C257.578,320.144 251.038,323.818 243.62,326.018C235.075,328.553 226.384,329.072 217.63,327.131C201.941,323.65 192.502,312.09 192.348,295.922C192.222,282.672 192.322,269.421 192.322,256.169Z" style="fill:rgb(17,17,17);fill-rule:nonzero;"/>
        </g>
    </g>
</svg>
