<?xml version="1.0" encoding="UTF-8" standalone="no"?>
<!DOCTYPE svg PUBLIC "-//W3C//DTD SVG 1.1//EN" "http://www.w3.org/Graphics/SVG/1.1/DTD/svg11.dtd">
<svg width="100%" height="100%" viewBox="0 0 113 113" version="1.1" xmlns="http://www.w3.org/2000/svg" xmlns:xlink="http://www.w3.org/1999/xlink" xml:space="preserve" xmlns:serif="http://www.serif.com/" style="fill-rule:evenodd;clip-rule:evenodd;stroke-linejoin:round;stroke-miterlimit:2;">
    <g>
        <circle cx="56.098" cy="56.098" r="56.098" style="fill:rgb(206,214,214);"/>
        <g>
            <path d="M16.707,68.833C16.68,69.015 16.55,69.145 16.381,69.145C16.212,69.145 16.082,69.015 16.056,68.829L15.463,64.391L16.056,59.879C16.081,59.691 16.211,59.561 16.381,59.561C16.549,59.561 16.679,59.691 16.707,59.879L17.413,64.396L16.707,68.833ZM19.728,71.529C19.7,71.722 19.56,71.857 19.387,71.857C19.219,71.857 19.072,71.722 19.049,71.529L18.251,64.39L19.049,57.091C19.073,56.903 19.219,56.763 19.387,56.763C19.56,56.763 19.7,56.9 19.728,57.091L20.636,64.39L19.728,71.529ZM22.988,72.738C22.965,72.97 22.791,73.135 22.582,73.135C22.366,73.135 22.195,72.97 22.174,72.738L21.417,64.396L22.174,55.737C22.193,55.502 22.366,55.334 22.582,55.334C22.791,55.334 22.964,55.502 22.988,55.737L23.847,64.396L22.988,72.738ZM26.28,73.003C26.256,73.269 26.048,73.47 25.801,73.47C25.548,73.47 25.341,73.269 25.32,73.003L24.605,64.396L25.32,55.499C25.341,55.231 25.548,55.03 25.801,55.03C26.048,55.03 26.256,55.231 26.28,55.499L27.091,64.396L26.28,73.003ZM29.59,73.072C29.573,73.381 29.332,73.61 29.047,73.61C28.753,73.61 28.52,73.381 28.5,73.072L27.824,64.395L28.5,56.141C28.521,55.834 28.753,55.605 29.047,55.605C29.337,55.605 29.573,55.834 29.59,56.137L30.356,64.395L29.59,73.072ZM32.932,73.077L32.932,73.072C32.912,73.414 32.641,73.684 32.315,73.684C31.988,73.684 31.717,73.413 31.698,73.077L31.067,64.4L31.698,50.971C31.717,50.629 31.988,50.359 32.315,50.359C32.642,50.359 32.913,50.63 32.932,50.966L33.647,64.4L32.932,73.077ZM36.249,73.072L36.249,73.067C36.229,73.445 35.93,73.746 35.56,73.746C35.197,73.746 34.897,73.445 34.879,73.067L34.283,64.446L34.879,47.945C34.897,47.567 35.197,47.268 35.56,47.268C35.93,47.268 36.229,47.567 36.249,47.945L36.92,64.446L36.249,73.072ZM39.69,72.939L39.69,72.934C39.675,73.355 39.344,73.682 38.937,73.682C38.53,73.682 38.199,73.355 38.184,72.939L37.631,64.406C37.631,64.406 38.184,46.53 38.184,46.525C38.2,46.109 38.53,45.776 38.937,45.776C39.344,45.776 39.676,46.109 39.69,46.525L40.315,64.406L39.69,72.939ZM43.111,72.882C43.095,73.34 42.736,73.699 42.289,73.699C41.841,73.699 41.482,73.34 41.466,72.886L40.95,64.404L41.466,45.926C41.482,45.466 41.841,45.108 42.289,45.108C42.736,45.108 43.096,45.466 43.111,45.926L43.684,64.404L43.111,72.882ZM46.554,72.807L46.554,72.802C46.538,73.297 46.151,73.69 45.66,73.69C45.176,73.69 44.781,73.297 44.772,72.807L44.298,64.406L44.767,46.4C44.781,45.898 45.175,45.51 45.66,45.51C46.151,45.51 46.538,45.898 46.554,46.4L47.086,64.406L46.554,72.807ZM50.025,72.757L50.025,72.75C50.017,73.289 49.591,73.704 49.065,73.704C48.535,73.704 48.115,73.289 48.099,72.757L47.671,64.405L48.1,47.058C48.116,46.52 48.536,46.099 49.066,46.099C49.592,46.099 50.018,46.52 50.026,47.058L50.511,64.41L50.025,72.757ZM53.566,71.876L53.523,72.694C53.518,72.979 53.398,73.237 53.215,73.423C53.027,73.606 52.769,73.723 52.496,73.723C52.178,73.723 51.898,73.577 51.706,73.347C51.564,73.18 51.476,72.964 51.466,72.737C51.463,72.727 51.463,72.714 51.463,72.7C51.463,72.7 51.068,64.414 51.068,64.4L51.458,43.957L51.463,43.761C51.466,43.403 51.656,43.084 51.94,42.901C52.099,42.795 52.287,42.733 52.497,42.733C52.703,42.733 52.898,42.797 53.061,42.91C53.338,43.095 53.519,43.406 53.524,43.762L53.958,64.41L53.566,71.876ZM57.007,72.587L57.007,72.577C57,73.181 56.505,73.673 55.907,73.673C55.307,73.673 54.813,73.181 54.807,72.582L54.58,68.552L54.357,64.414L54.807,42.008L54.807,41.895C54.808,41.555 54.968,41.251 55.215,41.046C55.404,40.891 55.647,40.797 55.907,40.797C56.114,40.797 56.306,40.854 56.47,40.95C56.783,41.146 57.002,41.493 57.012,41.89L57.499,64.413L57.007,72.587ZM86.74,73.695L59.028,73.695C58.43,73.634 57.957,73.158 57.947,72.545L57.947,40.821C57.957,40.237 58.158,39.936 58.91,39.647C60.851,38.895 63.049,38.451 65.308,38.451C74.523,38.451 82.074,45.52 82.875,54.525C84.061,54.03 85.371,53.748 86.74,53.748C92.258,53.748 96.732,58.224 96.732,63.746C96.732,69.267 92.258,73.695 86.74,73.695Z" style="fill:rgb(17,17,17);fill-rule:nonzero;"/>
        </g>
    </g>
</svg>
