<?xml version="1.0" encoding="UTF-8" standalone="no"?>
<!DOCTYPE svg PUBLIC "-//W3C//DTD SVG 1.1//EN" "http://www.w3.org/Graphics/SVG/1.1/DTD/svg11.dtd">
<svg width="100%" height="100%" viewBox="0 0 428 428" version="1.1" xmlns="http://www.w3.org/2000/svg" xmlns:xlink="http://www.w3.org/1999/xlink" xml:space="preserve" xmlns:serif="http://www.serif.com/" style="fill-rule:evenodd;clip-rule:evenodd;stroke-linejoin:round;stroke-miterlimit:2;">
    <path d="M213.826,0C95.733,0 0,95.733 0,213.826C0,331.919 95.733,427.652 213.826,427.652C331.919,427.652 427.652,331.919 427.652,213.826C427.652,95.733 331.919,0 213.826,0ZM306.886,310.32C304.167,314.972 299.274,317.566 294.248,317.567C291.742,317.567 289.204,316.922 286.884,315.567C248.459,293.111 204.069,289.502 173.589,290.429C139.826,291.456 115.066,298.121 114.82,298.189C107.037,300.315 98.994,295.735 96.859,287.953C94.725,280.172 99.289,272.134 107.068,269.991C108.184,269.684 134.828,262.447 171.879,261.225C193.703,260.505 214.713,262.026 234.317,265.745C259.147,270.455 281.797,278.723 301.639,290.319C308.612,294.393 310.96,303.349 306.886,310.32ZM334.07,253.861C330.85,259.372 325.054,262.444 319.1,262.445C316.132,262.445 313.125,261.682 310.377,260.076C264.863,233.476 212.28,229.203 176.177,230.3C136.183,231.517 106.854,239.412 106.563,239.492C97.346,242.007 87.817,236.586 85.288,227.368C82.76,218.15 88.167,208.63 97.381,206.091C98.703,205.727 130.263,197.154 174.151,195.707C200.004,194.855 224.89,196.656 248.111,201.061C277.523,206.641 304.352,216.434 327.855,230.169C336.115,234.995 338.897,245.603 334.07,253.861ZM350.781,202.526C347.14,202.526 343.452,201.59 340.081,199.62C231.874,136.382 91.509,173.977 90.104,174.365C78.791,177.482 67.096,170.838 63.98,159.526C60.863,148.214 67.507,136.518 78.819,133.402C80.44,132.955 119.152,122.44 172.985,120.665C204.698,119.621 235.222,121.829 263.705,127.232C299.782,134.076 332.692,146.088 361.52,162.936C371.65,168.856 375.063,181.867 369.143,191.997C365.193,198.757 358.084,202.526 350.781,202.526Z" style="fill:rgb(206,214,214);fill-rule:nonzero;stroke:white;stroke-width:1px;"/>
</svg>
