<?xml version="1.0" encoding="UTF-8" standalone="no"?>
<!DOCTYPE svg PUBLIC "-//W3C//DTD SVG 1.1//EN" "http://www.w3.org/Graphics/SVG/1.1/DTD/svg11.dtd">
<svg width="100%" height="100%" viewBox="0 0 512 512" version="1.1" xmlns="http://www.w3.org/2000/svg" xmlns:xlink="http://www.w3.org/1999/xlink" xml:space="preserve" xmlns:serif="http://www.serif.com/" style="fill-rule:evenodd;clip-rule:evenodd;stroke-linejoin:round;stroke-miterlimit:2;">
    <path d="M501.451,133.094C495.549,111.161 478.256,93.872 456.326,87.966C416.26,77.001 255.995,77.001 255.995,77.001C255.995,77.001 95.734,77.001 55.668,87.548C34.16,93.45 16.445,111.165 10.543,133.094C0,173.157 0,256.242 0,256.242C0,256.242 0,339.746 10.543,379.39C16.449,401.32 33.738,418.613 55.672,424.519C96.156,435.484 255.999,435.484 255.999,435.484C255.999,435.484 416.26,435.484 456.326,424.937C478.26,419.034 495.549,401.742 501.455,379.812C511.998,339.746 511.998,256.664 511.998,256.664C511.998,256.664 512.42,173.157 501.451,133.094Z" style="fill:rgb(206,214,214);fill-rule:nonzero;"/>
    <path d="M204.968,333L338.237,256.242L204.968,179.485L204.968,333Z" style="fill:rgb(17,17,17);fill-rule:nonzero;"/>
</svg>
